<svg id="visual" viewBox="0 0 960 540" width="960" height="540" xmlns="http://www.w3.org/2000/svg" xmlns:xlink="http://www.w3.org/1999/xlink" version="1.1"><rect x="0" y="0" width="960" height="540" fill="#ffffff"></rect><defs><linearGradient id="grad1_0" x1="43.8%" y1="100%" x2="100%" y2="0%"><stop offset="14.444444444444446%" stop-color="#fbae3c" stop-opacity="1"></stop><stop offset="85.55555555555554%" stop-color="#fbae3c" stop-opacity="1"></stop></linearGradient></defs><defs><linearGradient id="grad1_1" x1="43.8%" y1="100%" x2="100%" y2="0%"><stop offset="14.444444444444446%" stop-color="#fbae3c" stop-opacity="1"></stop><stop offset="85.55555555555554%" stop-color="#ffd69f" stop-opacity="1"></stop></linearGradient></defs><defs><linearGradient id="grad1_2" x1="43.8%" y1="100%" x2="100%" y2="0%"><stop offset="14.444444444444446%" stop-color="#ffffff" stop-opacity="1"></stop><stop offset="85.55555555555554%" stop-color="#ffd69f" stop-opacity="1"></stop></linearGradient></defs><defs><linearGradient id="grad2_0" x1="0%" y1="100%" x2="56.3%" y2="0%"><stop offset="14.444444444444446%" stop-color="#fbae3c" stop-opacity="1"></stop><stop offset="85.55555555555554%" stop-color="#fbae3c" stop-opacity="1"></stop></linearGradient></defs><defs><linearGradient id="grad2_1" x1="0%" y1="100%" x2="56.3%" y2="0%"><stop offset="14.444444444444446%" stop-color="#ffd69f" stop-opacity="1"></stop><stop offset="85.55555555555554%" stop-color="#fbae3c" stop-opacity="1"></stop></linearGradient></defs><defs><linearGradient id="grad2_2" x1="0%" y1="100%" x2="56.3%" y2="0%"><stop offset="14.444444444444446%" stop-color="#ffd69f" stop-opacity="1"></stop><stop offset="85.55555555555554%" stop-color="#ffffff" stop-opacity="1"></stop></linearGradient></defs><g transform="translate(960, 540)"><path d="M-216 0C-204.8 -19.3 -193.5 -38.5 -189.3 -61.5C-185 -84.5 -187.7 -111.2 -174.7 -127C-161.8 -142.7 -133.3 -147.6 -111.7 -153.7C-90 -159.8 -75.3 -167.3 -57.8 -177.8C-40.3 -188.4 -20.2 -202.2 0 -216L0 0Z" fill="#ffeacf"></path><path d="M-144 0C-136.5 -12.8 -129 -25.7 -126.2 -41C-123.3 -56.3 -125.1 -74.1 -116.5 -84.6C-107.9 -95.2 -88.9 -98.4 -74.5 -102.5C-60 -106.6 -50.2 -111.5 -38.5 -118.6C-26.9 -125.6 -13.4 -134.8 0 -144L0 0Z" fill="#ffc270"></path><path d="M-72 0C-68.3 -6.4 -64.5 -12.8 -63.1 -20.5C-61.7 -28.2 -62.6 -37.1 -58.2 -42.3C-53.9 -47.6 -44.4 -49.2 -37.2 -51.2C-30 -53.3 -25.1 -55.8 -19.3 -59.3C-13.4 -62.8 -6.7 -67.4 0 -72L0 0Z" fill="#fbae3c"></path></g><g transform="translate(0, 0)"><path d="M216 0C210.3 21.4 204.6 42.8 197.8 64.3C191 85.8 183.1 107.4 169.1 122.8C155 138.3 134.9 147.5 117.6 161.8C100.3 176.1 85.9 195.5 66.7 205.4C47.6 215.3 23.8 215.7 0 216L0 0Z" fill="#ffeacf"></path><path d="M144 0C140.2 14.3 136.4 28.5 131.9 42.9C127.3 57.2 122.1 71.6 112.7 81.9C103.4 92.2 89.9 98.3 78.4 107.9C66.8 117.4 57.2 130.4 44.5 137C31.8 143.5 15.9 143.8 0 144L0 0Z" fill="#ffc270"></path><path d="M72 0C70.1 7.1 68.2 14.3 65.9 21.4C63.7 28.6 61 35.8 56.4 40.9C51.7 46.1 45 49.2 39.2 53.9C33.4 58.7 28.6 65.2 22.2 68.5C15.9 71.8 7.9 71.9 0 72L0 0Z" fill="#fbae3c"></path></g></svg>