<svg id="visual" viewBox="0 0 960 540" width="960" height="540" xmlns="http://www.w3.org/2000/svg" xmlns:xlink="http://www.w3.org/1999/xlink" version="1.1"><rect width="960" height="540" fill="#ffffff"></rect><g><g transform="translate(296 154)"><path d="M63.6 -21.9C73.8 10.7 67.5 47.5 44.8 64.8C22 82 -17.2 79.8 -44.4 60.3C-71.5 40.7 -86.7 3.8 -77.3 -27.8C-67.9 -59.3 -34 -85.5 -3.6 -84.3C26.7 -83.1 53.4 -54.6 63.6 -21.9Z" stroke="#FBAE3C" fill="none" stroke-width="20"></path></g><g transform="translate(22 469)"><path d="M67.4 -18.8C77.2 8.3 68 44.6 45.4 60.6C22.8 76.6 -13.3 72.2 -36.4 54.4C-59.5 36.6 -69.7 5.3 -61.5 -19.6C-53.3 -44.5 -26.6 -63 1.1 -63.3C28.8 -63.7 57.6 -45.9 67.4 -18.8Z" stroke="#FBAE3C" fill="none" stroke-width="20"></path></g><g transform="translate(725 81)"><path d="M36.1 -13C39.4 -1.6 29.6 12.8 16.7 21.9C3.8 30.9 -12.1 34.7 -22.6 27.9C-33.1 21 -38.2 3.5 -33.6 -9.8C-28.9 -23 -14.4 -31.9 1 -32.2C16.4 -32.6 32.9 -24.3 36.1 -13Z" stroke="#FBAE3C" fill="none" stroke-width="20"></path></g><g transform="translate(514 520)"><path d="M58.6 -21.5C67.1 7.1 59 38.6 36.6 56.2C14.3 73.8 -22.4 77.6 -43.4 61.8C-64.5 46 -69.9 10.8 -60.1 -19.7C-50.3 -50.2 -25.1 -75.8 0 -75.8C25.1 -75.8 50.1 -50.1 58.6 -21.5Z" stroke="#FBAE3C" fill="none" stroke-width="20"></path></g><g transform="translate(949 384)"><path d="M71.5 -24.8C80.8 5.5 68.4 41.3 43.8 58.9C19.1 76.5 -17.8 75.9 -41.9 58.3C-65.9 40.6 -77.1 6 -68 -24.1C-58.9 -54.1 -29.5 -79.4 0.8 -79.7C31.1 -79.9 62.1 -55.1 71.5 -24.8Z" stroke="#FBAE3C" fill="none" stroke-width="20"></path></g></g></svg>