<svg id="visual" viewBox="0 0 960 540" width="960" height="540" xmlns="http://www.w3.org/2000/svg" xmlns:xlink="http://www.w3.org/1999/xlink" version="1.1"><rect x="0" y="0" width="960" height="540" fill="#ffffff"></rect><defs><linearGradient id="grad1_0" x1="43.8%" y1="0%" x2="100%" y2="100%"><stop offset="14.444444444444446%" stop-color="#fbae3c" stop-opacity="1"></stop><stop offset="85.55555555555554%" stop-color="#fbae3c" stop-opacity="1"></stop></linearGradient></defs><defs><linearGradient id="grad1_1" x1="43.8%" y1="0%" x2="100%" y2="100%"><stop offset="14.444444444444446%" stop-color="#fbae3c" stop-opacity="1"></stop><stop offset="85.55555555555554%" stop-color="#ffd69f" stop-opacity="1"></stop></linearGradient></defs><defs><linearGradient id="grad1_2" x1="43.8%" y1="0%" x2="100%" y2="100%"><stop offset="14.444444444444446%" stop-color="#ffffff" stop-opacity="1"></stop><stop offset="85.55555555555554%" stop-color="#ffd69f" stop-opacity="1"></stop></linearGradient></defs><defs><linearGradient id="grad2_0" x1="0%" y1="0%" x2="56.3%" y2="100%"><stop offset="14.444444444444446%" stop-color="#fbae3c" stop-opacity="1"></stop><stop offset="85.55555555555554%" stop-color="#fbae3c" stop-opacity="1"></stop></linearGradient></defs><defs><linearGradient id="grad2_1" x1="0%" y1="0%" x2="56.3%" y2="100%"><stop offset="14.444444444444446%" stop-color="#ffd69f" stop-opacity="1"></stop><stop offset="85.55555555555554%" stop-color="#fbae3c" stop-opacity="1"></stop></linearGradient></defs><defs><linearGradient id="grad2_2" x1="0%" y1="0%" x2="56.3%" y2="100%"><stop offset="14.444444444444446%" stop-color="#ffd69f" stop-opacity="1"></stop><stop offset="85.55555555555554%" stop-color="#ffffff" stop-opacity="1"></stop></linearGradient></defs><g transform="translate(960, 0)"><path d="M0 216C-19.3 204.8 -38.5 193.5 -61.5 189.3C-84.5 185 -111.2 187.7 -127 174.7C-142.7 161.8 -147.6 133.3 -153.7 111.7C-159.8 90 -167.3 75.3 -177.8 57.8C-188.4 40.3 -202.2 20.2 -216 0L0 0Z" fill="#ffeacf"></path><path d="M0 144C-12.8 136.5 -25.7 129 -41 126.2C-56.3 123.3 -74.1 125.1 -84.6 116.5C-95.2 107.9 -98.4 88.9 -102.5 74.5C-106.6 60 -111.5 50.2 -118.6 38.5C-125.6 26.9 -134.8 13.4 -144 0L0 0Z" fill="#ffc270"></path><path d="M0 72C-6.4 68.3 -12.8 64.5 -20.5 63.1C-28.2 61.7 -37.1 62.6 -42.3 58.2C-47.6 53.9 -49.2 44.4 -51.2 37.2C-53.3 30 -55.8 25.1 -59.3 19.3C-62.8 13.4 -67.4 6.7 -72 0L0 0Z" fill="#fbae3c"></path></g><g transform="translate(0, 540)"><path d="M0 -216C21.4 -210.3 42.8 -204.6 64.3 -197.8C85.8 -191 107.4 -183.1 122.8 -169.1C138.3 -155 147.5 -134.9 161.8 -117.6C176.1 -100.3 195.5 -85.9 205.4 -66.7C215.3 -47.6 215.7 -23.8 216 0L0 0Z" fill="#ffeacf"></path><path d="M0 -144C14.3 -140.2 28.5 -136.4 42.9 -131.9C57.2 -127.3 71.6 -122.1 81.9 -112.7C92.2 -103.4 98.3 -89.9 107.9 -78.4C117.4 -66.8 130.4 -57.2 137 -44.5C143.5 -31.8 143.8 -15.9 144 0L0 0Z" fill="#ffc270"></path><path d="M0 -72C7.1 -70.1 14.3 -68.2 21.4 -65.9C28.6 -63.7 35.8 -61 40.9 -56.4C46.1 -51.7 49.2 -45 53.9 -39.2C58.7 -33.4 65.2 -28.6 68.5 -22.2C71.8 -15.9 71.9 -7.9 72 0L0 0Z" fill="#fbae3c"></path></g></svg>