<svg id="visual" viewBox="0 0 900 600" width="900" height="600" xmlns="http://www.w3.org/2000/svg" xmlns:xlink="http://www.w3.org/1999/xlink" version="1.1"><rect x="0" y="0" width="900" height="600" fill="#ffffff"></rect><defs><linearGradient id="grad1_0" x1="33.3%" y1="0%" x2="100%" y2="100%"><stop offset="20%" stop-color="#fbae3c" stop-opacity="1"></stop><stop offset="80%" stop-color="#fbae3c" stop-opacity="1"></stop></linearGradient></defs><defs><linearGradient id="grad1_1" x1="33.3%" y1="0%" x2="100%" y2="100%"><stop offset="20%" stop-color="#fbae3c" stop-opacity="1"></stop><stop offset="80%" stop-color="#ffd69f" stop-opacity="1"></stop></linearGradient></defs><defs><linearGradient id="grad1_2" x1="33.3%" y1="0%" x2="100%" y2="100%"><stop offset="20%" stop-color="#ffffff" stop-opacity="1"></stop><stop offset="80%" stop-color="#ffd69f" stop-opacity="1"></stop></linearGradient></defs><defs><linearGradient id="grad2_0" x1="0%" y1="0%" x2="66.7%" y2="100%"><stop offset="20%" stop-color="#fbae3c" stop-opacity="1"></stop><stop offset="80%" stop-color="#fbae3c" stop-opacity="1"></stop></linearGradient></defs><defs><linearGradient id="grad2_1" x1="0%" y1="0%" x2="66.7%" y2="100%"><stop offset="20%" stop-color="#ffd69f" stop-opacity="1"></stop><stop offset="80%" stop-color="#fbae3c" stop-opacity="1"></stop></linearGradient></defs><defs><linearGradient id="grad2_2" x1="0%" y1="0%" x2="66.7%" y2="100%"><stop offset="20%" stop-color="#ffd69f" stop-opacity="1"></stop><stop offset="80%" stop-color="#ffffff" stop-opacity="1"></stop></linearGradient></defs><g transform="translate(900, 0)"><path d="M0 189.3C-23.5 182.2 -47.1 175.1 -68.5 165.4C-89.9 155.7 -109.3 143.3 -128 128C-146.7 112.6 -164.8 94.3 -174.9 72.4C-185 50.6 -187.1 25.3 -189.3 0L0 0Z" fill="#ffeacf"></path><path d="M0 126.2C-15.7 121.5 -31.4 116.7 -45.7 110.2C-60 103.8 -72.9 95.6 -85.3 85.3C-97.8 75.1 -109.8 62.8 -116.6 48.3C-123.3 33.7 -124.8 16.9 -126.2 0L0 0Z" fill="#ffc270"></path><path d="M0 63.1C-7.8 60.7 -15.7 58.4 -22.8 55.1C-30 51.9 -36.4 47.8 -42.7 42.7C-48.9 37.5 -54.9 31.4 -58.3 24.1C-61.7 16.9 -62.4 8.4 -63.1 0L0 0Z" fill="#fbae3c"></path></g><g transform="translate(0, 600)"><path d="M0 -189.3C17.5 -168 35 -146.8 57.8 -139.5C80.6 -132.2 108.7 -139 130.1 -130.1C151.5 -121.2 166.1 -96.7 174.9 -72.4C183.6 -48.2 186.5 -24.1 189.3 0L0 0Z" fill="#ffeacf"></path><path d="M0 -126.2C11.7 -112 23.3 -97.8 38.5 -93C53.7 -88.2 72.5 -92.7 86.7 -86.7C101 -80.8 110.8 -64.5 116.6 -48.3C122.4 -32.1 124.3 -16.1 126.2 0L0 0Z" fill="#ffc270"></path><path d="M0 -63.1C5.8 -56 11.7 -48.9 19.3 -46.5C26.9 -44.1 36.2 -46.3 43.4 -43.4C50.5 -40.4 55.4 -32.2 58.3 -24.1C61.2 -16.1 62.2 -8 63.1 0L0 0Z" fill="#fbae3c"></path></g></svg>