<svg id="visual" viewBox="0 0 900 600" width="900" height="600" xmlns="http://www.w3.org/2000/svg" xmlns:xlink="http://www.w3.org/1999/xlink" version="1.1"><rect x="0" y="0" width="900" height="600" fill="#ffffff"></rect><defs><linearGradient id="grad1_0" x1="33.3%" y1="0%" x2="100%" y2="100%"><stop offset="20%" stop-color="#fbae3c" stop-opacity="1"></stop><stop offset="80%" stop-color="#fbae3c" stop-opacity="1"></stop></linearGradient></defs><defs><linearGradient id="grad1_1" x1="33.3%" y1="0%" x2="100%" y2="100%"><stop offset="20%" stop-color="#fbae3c" stop-opacity="1"></stop><stop offset="80%" stop-color="#ffd69f" stop-opacity="1"></stop></linearGradient></defs><defs><linearGradient id="grad1_2" x1="33.3%" y1="0%" x2="100%" y2="100%"><stop offset="20%" stop-color="#ffffff" stop-opacity="1"></stop><stop offset="80%" stop-color="#ffd69f" stop-opacity="1"></stop></linearGradient></defs><defs><linearGradient id="grad2_0" x1="0%" y1="0%" x2="66.7%" y2="100%"><stop offset="20%" stop-color="#fbae3c" stop-opacity="1"></stop><stop offset="80%" stop-color="#fbae3c" stop-opacity="1"></stop></linearGradient></defs><defs><linearGradient id="grad2_1" x1="0%" y1="0%" x2="66.7%" y2="100%"><stop offset="20%" stop-color="#ffd69f" stop-opacity="1"></stop><stop offset="80%" stop-color="#fbae3c" stop-opacity="1"></stop></linearGradient></defs><defs><linearGradient id="grad2_2" x1="0%" y1="0%" x2="66.7%" y2="100%"><stop offset="20%" stop-color="#ffd69f" stop-opacity="1"></stop><stop offset="80%" stop-color="#ffffff" stop-opacity="1"></stop></linearGradient></defs><g transform="translate(900, 0)"><path d="M0 243.4C-35.4 243.5 -70.9 243.6 -93.1 224.8C-115.4 206.1 -124.6 168.3 -144.2 144.2C-163.9 120.2 -194.2 109.8 -212.5 88C-230.8 66.3 -237.1 33.1 -243.4 0L0 0Z" fill="#ffeacf"></path><path d="M0 162.2C-23.6 162.3 -47.2 162.4 -62.1 149.9C-76.9 137.4 -83 112.2 -96.2 96.2C-109.3 80.1 -129.5 73.2 -141.7 58.7C-153.8 44.2 -158 22.1 -162.2 0L0 0Z" fill="#ffc270"></path><path d="M0 81.1C-11.8 81.2 -23.6 81.2 -31 74.9C-38.5 68.7 -41.5 56.1 -48.1 48.1C-54.6 40.1 -64.7 36.6 -70.8 29.3C-76.9 22.1 -79 11 -81.1 0L0 0Z" fill="#fbae3c"></path></g><g transform="translate(0, 600)"><path d="M0 -243.4C26.3 -224.2 52.6 -204.9 80 -193.1C107.4 -181.2 135.9 -176.8 161.9 -161.9C188 -147.1 211.7 -121.9 224.8 -93.1C238 -64.4 240.7 -32.2 243.4 0L0 0Z" fill="#ffeacf"></path><path d="M0 -162.2C17.5 -149.4 35.1 -136.6 53.3 -128.7C71.6 -120.8 90.6 -117.9 108 -108C125.3 -98.1 141.1 -81.2 149.9 -62.1C158.7 -42.9 160.5 -21.5 162.2 0L0 0Z" fill="#ffc270"></path><path d="M0 -81.1C8.8 -74.7 17.5 -68.3 26.7 -64.4C35.8 -60.4 45.3 -58.9 54 -54C62.7 -49 70.6 -40.6 74.9 -31C79.3 -21.5 80.2 -10.7 81.1 0L0 0Z" fill="#fbae3c"></path></g></svg>