<svg id="visual" viewBox="0 0 900 600" width="900" height="600" xmlns="http://www.w3.org/2000/svg" xmlns:xlink="http://www.w3.org/1999/xlink" version="1.1"><rect x="0" y="0" width="900" height="600" fill="#eaf2f9"></rect><defs><linearGradient id="grad1_0" x1="33.3%" y1="0%" x2="100%" y2="100%"><stop offset="20%" stop-color="#eaf2f9" stop-opacity="1"></stop><stop offset="80%" stop-color="#eaf2f9" stop-opacity="1"></stop></linearGradient></defs><defs><linearGradient id="grad2_0" x1="0%" y1="0%" x2="66.7%" y2="100%"><stop offset="20%" stop-color="#eaf2f9" stop-opacity="1"></stop><stop offset="80%" stop-color="#eaf2f9" stop-opacity="1"></stop></linearGradient></defs><g transform="translate(900, 0)"><path d="M0 243.4C-31.4 239.7 -62.7 236 -93.1 224.8C-123.5 213.7 -153 195 -169.7 169.7C-186.4 144.4 -190.3 112.4 -200.5 83C-210.6 53.6 -227 26.8 -243.4 0L0 0Z" fill="#f1a32d"></path></g><g transform="translate(0, 600)"><path d="M0 -243.4C33.7 -242.6 67.4 -241.7 93.1 -224.8C118.9 -208 136.6 -175 147.1 -147.1C157.5 -119.2 160.7 -96.4 175.5 -72.7C190.4 -49 216.9 -24.5 243.4 0L0 0Z" fill="#f1a32d"></path></g></svg>