<svg id="visual" viewBox="0 0 440 640" width="440" height="640" xmlns="http://www.w3.org/2000/svg" xmlns:xlink="http://www.w3.org/1999/xlink" version="1.1"><g stroke-width="1" stroke-linejoin="bevel"><path d="M191 328L187 335L198 365Z" fill="#d89671" stroke="#d89671"></path><path d="M166 344L188 377L198 365Z" fill="#d89671" stroke="#d89671"></path><path d="M191 328L166 344L187 335Z" fill="#eec8b5" stroke="#eec8b5"></path><path d="M187 335L166 344L198 365Z" fill="#eec8b5" stroke="#eec8b5"></path><path d="M271 356L191 328L198 365Z" fill="#f3d9cc" stroke="#f3d9cc"></path><path d="M271 356L252 301L191 328Z" fill="#bc6530" stroke="#bc6530"></path><path d="M279 381L271 356L278 385Z" fill="#d89671" stroke="#d89671"></path><path d="M252 301L245 290L191 328Z" fill="#c67646" stroke="#c67646"></path><path d="M126 346L128 359L166 344Z" fill="#d89671" stroke="#d89671"></path><path d="M154 410L197 417L188 377Z" fill="#bc6530" stroke="#bc6530"></path><path d="M188 377L197 417L198 365Z" fill="#e7b89e" stroke="#e7b89e"></path><path d="M278 385L271 356L276 393Z" fill="#e7b89e" stroke="#e7b89e"></path><path d="M276 393L271 356L198 365Z" fill="#d89671" stroke="#d89671"></path><path d="M241 426L276 393L198 365Z" fill="#fcfcfc" stroke="#fcfcfc"></path><path d="M126 346L166 344L121 342Z" fill="#c67646" stroke="#c67646"></path><path d="M166 344L128 359L188 377Z" fill="#c67646" stroke="#c67646"></path><path d="M151 277L166 344L191 328Z" fill="#eec8b5" stroke="#eec8b5"></path><path d="M128 359L154 410L188 377Z" fill="#f8ebe4" stroke="#f8ebe4"></path><path d="M154 447L200 430L197 417Z" fill="#f8ebe4" stroke="#f8ebe4"></path><path d="M197 417L241 426L198 365Z" fill="#d0865b" stroke="#d0865b"></path><path d="M200 430L241 426L197 417Z" fill="#bc6530" stroke="#bc6530"></path><path d="M168 258L151 277L191 328Z" fill="#e7b89e" stroke="#e7b89e"></path><path d="M151 277L121 342L166 344Z" fill="#e0a787" stroke="#e0a787"></path><path d="M126 346L121 342L128 359Z" fill="#f3d9cc" stroke="#f3d9cc"></path><path d="M245 290L168 258L191 328Z" fill="#e0a787" stroke="#e0a787"></path><path d="M260 430L280 410L276 393Z" fill="#f8ebe4" stroke="#f8ebe4"></path><path d="M276 393L280 410L278 385Z" fill="#c67646" stroke="#c67646"></path><path d="M278 385L280 410L279 381Z" fill="#b25519" stroke="#b25519"></path><path d="M252 301L282 276L245 290Z" fill="#f8ebe4" stroke="#f8ebe4"></path><path d="M245 290L190 242L168 258Z" fill="#b25519" stroke="#b25519"></path><path d="M328 302L282 276L252 301Z" fill="#f3d9cc" stroke="#f3d9cc"></path><path d="M296 269L282 276L328 302Z" fill="#d89671" stroke="#d89671"></path><path d="M252 301L271 356L328 302Z" fill="#bc6530" stroke="#bc6530"></path><path d="M241 426L260 430L276 393Z" fill="#e7b89e" stroke="#e7b89e"></path><path d="M247 438L260 430L241 426Z" fill="#e7b89e" stroke="#e7b89e"></path><path d="M200 430L247 438L241 426Z" fill="#f8ebe4" stroke="#f8ebe4"></path><path d="M282 276L268 259L245 290Z" fill="#bc6530" stroke="#bc6530"></path><path d="M200 230L190 242L234 224Z" fill="#d0865b" stroke="#d0865b"></path><path d="M247 438L262 444L260 430Z" fill="#fcfcfc" stroke="#fcfcfc"></path><path d="M260 430L283 456L280 410Z" fill="#e0a787" stroke="#e0a787"></path><path d="M254 500L262 444L247 438Z" fill="#eec8b5" stroke="#eec8b5"></path><path d="M170 232L151 247L168 258Z" fill="#b25519" stroke="#b25519"></path><path d="M168 258L151 247L151 277Z" fill="#e0a787" stroke="#e0a787"></path><path d="M151 277L97 309L121 342Z" fill="#e7b89e" stroke="#e7b89e"></path><path d="M282 276L296 269L268 259Z" fill="#eec8b5" stroke="#eec8b5"></path><path d="M328 302L271 356L363 329Z" fill="#d0865b" stroke="#d0865b"></path><path d="M234 224L190 242L245 290Z" fill="#c67646" stroke="#c67646"></path><path d="M190 242L170 232L168 258Z" fill="#d89671" stroke="#d89671"></path><path d="M234 224L245 290L268 259Z" fill="#d89671" stroke="#d89671"></path><path d="M98 442L154 447L154 410Z" fill="#d89671" stroke="#d89671"></path><path d="M154 410L154 447L197 417Z" fill="#f3d9cc" stroke="#f3d9cc"></path><path d="M200 430L201 489L247 438Z" fill="#e0a787" stroke="#e0a787"></path><path d="M95 381L154 410L128 359Z" fill="#eec8b5" stroke="#eec8b5"></path><path d="M129 238L97 309L151 277Z" fill="#f3d9cc" stroke="#f3d9cc"></path><path d="M83 368L95 381L128 359Z" fill="#bc6530" stroke="#bc6530"></path><path d="M200 230L170 232L190 242Z" fill="#d0865b" stroke="#d0865b"></path><path d="M83 368L128 359L121 342Z" fill="#c67646" stroke="#c67646"></path><path d="M257 215L234 224L268 259Z" fill="#d89671" stroke="#d89671"></path><path d="M200 230L215 183L170 232Z" fill="#bc6530" stroke="#bc6530"></path><path d="M333 300L328 302L363 329Z" fill="#e7b89e" stroke="#e7b89e"></path><path d="M80 351L83 368L121 342Z" fill="#bc6530" stroke="#bc6530"></path><path d="M95 381L98 442L154 410Z" fill="#f8ebe4" stroke="#f8ebe4"></path><path d="M97 309L80 351L121 342Z" fill="#eec8b5" stroke="#eec8b5"></path><path d="M363 329L271 356L279 381Z" fill="#e0a787" stroke="#e0a787"></path><path d="M328 302L333 274L296 269Z" fill="#bc6530" stroke="#bc6530"></path><path d="M154 447L186 474L200 430Z" fill="#e0a787" stroke="#e0a787"></path><path d="M170 232L129 238L151 247Z" fill="#d0865b" stroke="#d0865b"></path><path d="M151 247L129 238L151 277Z" fill="#bc6530" stroke="#bc6530"></path><path d="M262 444L283 456L260 430Z" fill="#e7b89e" stroke="#e7b89e"></path><path d="M393 393L363 329L279 381Z" fill="#c67646" stroke="#c67646"></path><path d="M280 458L283 456L262 444Z" fill="#f8ebe4" stroke="#f8ebe4"></path><path d="M254 500L280 458L262 444Z" fill="#c67646" stroke="#c67646"></path><path d="M297 232L257 215L268 259Z" fill="#eec8b5" stroke="#eec8b5"></path><path d="M234 224L236 208L200 230Z" fill="#eec8b5" stroke="#eec8b5"></path><path d="M108 159L107 230L129 238Z" fill="#bc6530" stroke="#bc6530"></path><path d="M297 232L268 259L296 269Z" fill="#e7b89e" stroke="#e7b89e"></path><path d="M257 215L236 208L234 224Z" fill="#fcfcfc" stroke="#fcfcfc"></path><path d="M333 300L333 274L328 302Z" fill="#fcfcfc" stroke="#fcfcfc"></path><path d="M308 233L297 232L296 269Z" fill="#d89671" stroke="#d89671"></path><path d="M151 512L201 489L186 474Z" fill="#f3d9cc" stroke="#f3d9cc"></path><path d="M186 474L201 489L200 430Z" fill="#c67646" stroke="#c67646"></path><path d="M129 238L74 290L97 309Z" fill="#eec8b5" stroke="#eec8b5"></path><path d="M97 309L64 290L80 351Z" fill="#c67646" stroke="#c67646"></path><path d="M333 274L308 233L296 269Z" fill="#bc6530" stroke="#bc6530"></path><path d="M297 232L262 172L257 215Z" fill="#bc6530" stroke="#bc6530"></path><path d="M59 390L98 442L95 381Z" fill="#c67646" stroke="#c67646"></path><path d="M154 447L125 478L186 474Z" fill="#f3d9cc" stroke="#f3d9cc"></path><path d="M262 172L235 196L257 215Z" fill="#eec8b5" stroke="#eec8b5"></path><path d="M257 215L235 196L236 208Z" fill="#fcfcfc" stroke="#fcfcfc"></path><path d="M236 208L215 183L200 230Z" fill="#d89671" stroke="#d89671"></path><path d="M129 238L107 230L74 290Z" fill="#f8ebe4" stroke="#f8ebe4"></path><path d="M108 159L129 238L170 232Z" fill="#bc6530" stroke="#bc6530"></path><path d="M334 443L279 381L280 410Z" fill="#d0865b" stroke="#d0865b"></path><path d="M333 300L377 303L333 274Z" fill="#d0865b" stroke="#d0865b"></path><path d="M43 274L64 290L74 290Z" fill="#c67646" stroke="#c67646"></path><path d="M74 290L64 290L97 309Z" fill="#fcfcfc" stroke="#fcfcfc"></path><path d="M80 351L59 390L83 368Z" fill="#f8ebe4" stroke="#f8ebe4"></path><path d="M83 368L59 390L95 381Z" fill="#b25519" stroke="#b25519"></path><path d="M280 458L294 476L283 456Z" fill="#bc6530" stroke="#bc6530"></path><path d="M283 456L334 443L280 410Z" fill="#c67646" stroke="#c67646"></path><path d="M254 500L294 476L280 458Z" fill="#eec8b5" stroke="#eec8b5"></path><path d="M49 389L59 390L80 351Z" fill="#d89671" stroke="#d89671"></path><path d="M294 476L334 443L283 456Z" fill="#f3d9cc" stroke="#f3d9cc"></path><path d="M98 442L125 478L154 447Z" fill="#d0865b" stroke="#d0865b"></path><path d="M209 170L215 183L262 172Z" fill="#c67646" stroke="#c67646"></path><path d="M235 196L215 183L236 208Z" fill="#fcfcfc" stroke="#fcfcfc"></path><path d="M232 513L254 500L201 489Z" fill="#fcfcfc" stroke="#fcfcfc"></path><path d="M201 489L254 500L247 438Z" fill="#b25519" stroke="#b25519"></path><path d="M0 365L49 389L80 351Z" fill="#e0a787" stroke="#e0a787"></path><path d="M59 390L80 454L98 442Z" fill="#f3d9cc" stroke="#f3d9cc"></path><path d="M98 442L80 454L125 478Z" fill="#d0865b" stroke="#d0865b"></path><path d="M21 403L80 454L59 390Z" fill="#eec8b5" stroke="#eec8b5"></path><path d="M203 531L232 513L201 489Z" fill="#d0865b" stroke="#d0865b"></path><path d="M363 329L377 303L333 300Z" fill="#fcfcfc" stroke="#fcfcfc"></path><path d="M351 171L323 156L308 233Z" fill="#f3d9cc" stroke="#f3d9cc"></path><path d="M391 308L377 303L363 329Z" fill="#bc6530" stroke="#bc6530"></path><path d="M294 476L345 450L334 443Z" fill="#c67646" stroke="#c67646"></path><path d="M334 443L393 393L279 381Z" fill="#b25519" stroke="#b25519"></path><path d="M314 509L345 450L294 476Z" fill="#e0a787" stroke="#e0a787"></path><path d="M314 509L294 476L308 522Z" fill="#eec8b5" stroke="#eec8b5"></path><path d="M262 172L215 183L235 196Z" fill="#e0a787" stroke="#e0a787"></path><path d="M215 183L209 170L170 232Z" fill="#d89671" stroke="#d89671"></path><path d="M122 540L151 512L125 478Z" fill="#fcfcfc" stroke="#fcfcfc"></path><path d="M125 478L151 512L186 474Z" fill="#d89671" stroke="#d89671"></path><path d="M323 156L297 232L308 233Z" fill="#b25519" stroke="#b25519"></path><path d="M323 156L262 172L297 232Z" fill="#d89671" stroke="#d89671"></path><path d="M107 230L43 274L74 290Z" fill="#b25519" stroke="#b25519"></path><path d="M0 301L0 365L80 351Z" fill="#bc6530" stroke="#bc6530"></path><path d="M440 336L391 308L363 329Z" fill="#b25519" stroke="#b25519"></path><path d="M351 171L308 233L384 194Z" fill="#e0a787" stroke="#e0a787"></path><path d="M151 512L203 531L201 489Z" fill="#fcfcfc" stroke="#fcfcfc"></path><path d="M308 522L294 476L254 500Z" fill="#bc6530" stroke="#bc6530"></path><path d="M345 450L393 393L334 443Z" fill="#bc6530" stroke="#bc6530"></path><path d="M308 522L254 500L294 538Z" fill="#eec8b5" stroke="#eec8b5"></path><path d="M345 450L407 412L393 393Z" fill="#c67646" stroke="#c67646"></path><path d="M44 501L77 487L80 454Z" fill="#f3d9cc" stroke="#f3d9cc"></path><path d="M80 454L77 487L125 478Z" fill="#f8ebe4" stroke="#f8ebe4"></path><path d="M151 512L157 566L203 531Z" fill="#c67646" stroke="#c67646"></path><path d="M0 365L21 403L49 389Z" fill="#f3d9cc" stroke="#f3d9cc"></path><path d="M49 389L21 403L59 390Z" fill="#d0865b" stroke="#d0865b"></path><path d="M294 538L254 500L290 541Z" fill="#bc6530" stroke="#bc6530"></path><path d="M389 461L407 412L345 450Z" fill="#e0a787" stroke="#e0a787"></path><path d="M308 111L237 138L262 172Z" fill="#f3d9cc" stroke="#f3d9cc"></path><path d="M262 172L237 138L209 170Z" fill="#fcfcfc" stroke="#fcfcfc"></path><path d="M150 129L108 159L170 232Z" fill="#bc6530" stroke="#bc6530"></path><path d="M107 230L33 216L43 274Z" fill="#d0865b" stroke="#d0865b"></path><path d="M389 461L345 450L377 504Z" fill="#c67646" stroke="#c67646"></path><path d="M440 336L433 309L391 308Z" fill="#f8ebe4" stroke="#f8ebe4"></path><path d="M150 129L170 232L209 170Z" fill="#b25519" stroke="#b25519"></path><path d="M0 301L80 351L64 290Z" fill="#d0865b" stroke="#d0865b"></path><path d="M290 541L254 500L232 513Z" fill="#f3d9cc" stroke="#f3d9cc"></path><path d="M377 504L345 450L314 509Z" fill="#e0a787" stroke="#e0a787"></path><path d="M227 575L290 541L232 513Z" fill="#e7b89e" stroke="#e7b89e"></path><path d="M377 504L314 509L308 522Z" fill="#e0a787" stroke="#e0a787"></path><path d="M0 268L0 301L43 274Z" fill="#c67646" stroke="#c67646"></path><path d="M43 274L0 301L64 290Z" fill="#fcfcfc" stroke="#fcfcfc"></path><path d="M77 487L122 540L125 478Z" fill="#e7b89e" stroke="#e7b89e"></path><path d="M203 531L227 575L232 513Z" fill="#f8ebe4" stroke="#f8ebe4"></path><path d="M39 177L38 210L46 168Z" fill="#eec8b5" stroke="#eec8b5"></path><path d="M38 210L33 216L107 230Z" fill="#d0865b" stroke="#d0865b"></path><path d="M308 233L333 274L401 221Z" fill="#f8ebe4" stroke="#f8ebe4"></path><path d="M401 221L333 274L377 303Z" fill="#fcfcfc" stroke="#fcfcfc"></path><path d="M205 105L150 129L209 170Z" fill="#d0865b" stroke="#d0865b"></path><path d="M0 253L0 268L43 274Z" fill="#eec8b5" stroke="#eec8b5"></path><path d="M21 403L0 432L80 454Z" fill="#eec8b5" stroke="#eec8b5"></path><path d="M77 487L65 543L122 540Z" fill="#fcfcfc" stroke="#fcfcfc"></path><path d="M0 365L0 424L21 403Z" fill="#fcfcfc" stroke="#fcfcfc"></path><path d="M440 336L363 329L393 393Z" fill="#e0a787" stroke="#e0a787"></path><path d="M391 308L401 221L377 303Z" fill="#c67646" stroke="#c67646"></path><path d="M440 281L401 221L391 308Z" fill="#d0865b" stroke="#d0865b"></path><path d="M81 133L90 150L109 101Z" fill="#e0a787" stroke="#e0a787"></path><path d="M46 168L38 210L107 230Z" fill="#bc6530" stroke="#bc6530"></path><path d="M0 424L0 432L21 403Z" fill="#fcfcfc" stroke="#fcfcfc"></path><path d="M122 540L157 566L151 512Z" fill="#fcfcfc" stroke="#fcfcfc"></path><path d="M0 239L0 253L33 216Z" fill="#f8ebe4" stroke="#f8ebe4"></path><path d="M33 216L0 253L43 274Z" fill="#d89671" stroke="#d89671"></path><path d="M0 239L33 216L0 168Z" fill="#e7b89e" stroke="#e7b89e"></path><path d="M0 479L44 501L80 454Z" fill="#c67646" stroke="#c67646"></path><path d="M122 540L130 598L157 566Z" fill="#fcfcfc" stroke="#fcfcfc"></path><path d="M401 221L384 194L308 233Z" fill="#fcfcfc" stroke="#fcfcfc"></path><path d="M440 393L393 393L407 412Z" fill="#fcfcfc" stroke="#fcfcfc"></path><path d="M440 393L440 336L393 393Z" fill="#eec8b5" stroke="#eec8b5"></path><path d="M401 221L400 213L384 194Z" fill="#e7b89e" stroke="#e7b89e"></path><path d="M440 187L400 213L401 221Z" fill="#c67646" stroke="#c67646"></path><path d="M384 588L308 522L294 538Z" fill="#e0a787" stroke="#e0a787"></path><path d="M384 588L377 504L308 522Z" fill="#eec8b5" stroke="#eec8b5"></path><path d="M442 438L440 393L407 412Z" fill="#bc6530" stroke="#bc6530"></path><path d="M188 576L227 575L203 531Z" fill="#b25519" stroke="#b25519"></path><path d="M340 627L384 588L294 538Z" fill="#d0865b" stroke="#d0865b"></path><path d="M0 490L46 508L44 501Z" fill="#e0a787" stroke="#e0a787"></path><path d="M44 501L46 508L77 487Z" fill="#d89671" stroke="#d89671"></path><path d="M157 566L188 576L203 531Z" fill="#f3d9cc" stroke="#f3d9cc"></path><path d="M0 168L33 216L38 210Z" fill="#c67646" stroke="#c67646"></path><path d="M442 438L407 412L389 461Z" fill="#d0865b" stroke="#d0865b"></path><path d="M377 504L394 494L389 461Z" fill="#fcfcfc" stroke="#fcfcfc"></path><path d="M440 336L440 282L433 309Z" fill="#c67646" stroke="#c67646"></path><path d="M433 309L440 282L391 308Z" fill="#b25519" stroke="#b25519"></path><path d="M440 282L440 281L391 308Z" fill="#d89671" stroke="#d89671"></path><path d="M286 64L205 105L237 138Z" fill="#d0865b" stroke="#d0865b"></path><path d="M237 138L205 105L209 170Z" fill="#d0865b" stroke="#d0865b"></path><path d="M109 101L90 150L108 159Z" fill="#f3d9cc" stroke="#f3d9cc"></path><path d="M46 168L107 230L108 159Z" fill="#bc6530" stroke="#bc6530"></path><path d="M90 150L46 168L108 159Z" fill="#c67646" stroke="#c67646"></path><path d="M351 171L343 142L323 156Z" fill="#f8ebe4" stroke="#f8ebe4"></path><path d="M323 156L308 111L262 172Z" fill="#f3d9cc" stroke="#f3d9cc"></path><path d="M361 138L343 142L351 171Z" fill="#eec8b5" stroke="#eec8b5"></path><path d="M338 130L343 142L361 138Z" fill="#b25519" stroke="#b25519"></path><path d="M0 587L65 543L46 508Z" fill="#bc6530" stroke="#bc6530"></path><path d="M46 508L65 543L77 487Z" fill="#d0865b" stroke="#d0865b"></path><path d="M175 640L221 603L188 576Z" fill="#e7b89e" stroke="#e7b89e"></path><path d="M109 101L108 159L150 129Z" fill="#d0865b" stroke="#d0865b"></path><path d="M90 150L42 149L46 168Z" fill="#d0865b" stroke="#d0865b"></path><path d="M65 543L78 554L122 540Z" fill="#fcfcfc" stroke="#fcfcfc"></path><path d="M361 138L351 171L384 194Z" fill="#b25519" stroke="#b25519"></path><path d="M343 142L338 130L323 156Z" fill="#e7b89e" stroke="#e7b89e"></path><path d="M0 432L0 479L80 454Z" fill="#e7b89e" stroke="#e7b89e"></path><path d="M440 461L442 438L389 461Z" fill="#f3d9cc" stroke="#f3d9cc"></path><path d="M440 393L442 438L440 336Z" fill="#e7b89e" stroke="#e7b89e"></path><path d="M440 336L442 438L440 282Z" fill="#e0a787" stroke="#e0a787"></path><path d="M440 282L442 438L440 281Z" fill="#d89671" stroke="#d89671"></path><path d="M442 438L440 240L440 281Z" fill="#d0865b" stroke="#d0865b"></path><path d="M440 281L440 240L401 221Z" fill="#b25519" stroke="#b25519"></path><path d="M400 213L440 187L384 194Z" fill="#f8ebe4" stroke="#f8ebe4"></path><path d="M338 130L308 111L323 156Z" fill="#d89671" stroke="#d89671"></path><path d="M286 64L201 89L205 105Z" fill="#fcfcfc" stroke="#fcfcfc"></path><path d="M205 105L201 89L150 129Z" fill="#e0a787" stroke="#e0a787"></path><path d="M440 151L361 138L384 194Z" fill="#d89671" stroke="#d89671"></path><path d="M338 130L352 92L308 111Z" fill="#bc6530" stroke="#bc6530"></path><path d="M0 479L0 490L44 501Z" fill="#eec8b5" stroke="#eec8b5"></path><path d="M65 543L74 563L78 554Z" fill="#fcfcfc" stroke="#fcfcfc"></path><path d="M81 133L42 149L90 150Z" fill="#d89671" stroke="#d89671"></path><path d="M46 168L42 149L39 177Z" fill="#fcfcfc" stroke="#fcfcfc"></path><path d="M39 177L0 168L38 210Z" fill="#eec8b5" stroke="#eec8b5"></path><path d="M442 468L440 461L440 483Z" fill="#fcfcfc" stroke="#fcfcfc"></path><path d="M0 587L74 563L65 543Z" fill="#f3d9cc" stroke="#f3d9cc"></path><path d="M94 584L130 598L122 540Z" fill="#fcfcfc" stroke="#fcfcfc"></path><path d="M201 89L135 95L150 129Z" fill="#e0a787" stroke="#e0a787"></path><path d="M81 133L54 114L42 149Z" fill="#e7b89e" stroke="#e7b89e"></path><path d="M130 598L188 576L157 566Z" fill="#e0a787" stroke="#e0a787"></path><path d="M188 576L221 603L227 575Z" fill="#d89671" stroke="#d89671"></path><path d="M227 575L298 634L290 541Z" fill="#bc6530" stroke="#bc6530"></path><path d="M440 483L389 461L394 494Z" fill="#c67646" stroke="#c67646"></path><path d="M135 95L109 101L150 129Z" fill="#e7b89e" stroke="#e7b89e"></path><path d="M440 483L440 461L389 461Z" fill="#b25519" stroke="#b25519"></path><path d="M440 461L442 468L442 438Z" fill="#d0865b" stroke="#d0865b"></path><path d="M440 483L394 494L440 484Z" fill="#d89671" stroke="#d89671"></path><path d="M109 101L90 106L81 133Z" fill="#eec8b5" stroke="#eec8b5"></path><path d="M94 584L122 540L78 554Z" fill="#d0865b" stroke="#d0865b"></path><path d="M123 642L94 584L78 640Z" fill="#f3d9cc" stroke="#f3d9cc"></path><path d="M74 563L94 584L78 554Z" fill="#d89671" stroke="#d89671"></path><path d="M440 484L394 494L440 568Z" fill="#f8ebe4" stroke="#f8ebe4"></path><path d="M427 572L394 494L377 504Z" fill="#eec8b5" stroke="#eec8b5"></path><path d="M440 483L440 484L442 468Z" fill="#b25519" stroke="#b25519"></path><path d="M0 120L0 168L42 149Z" fill="#d89671" stroke="#d89671"></path><path d="M42 149L0 168L39 177Z" fill="#d89671" stroke="#d89671"></path><path d="M105 81L54 114L90 106Z" fill="#f3d9cc" stroke="#f3d9cc"></path><path d="M90 106L54 114L81 133Z" fill="#eec8b5" stroke="#eec8b5"></path><path d="M440 240L440 187L401 221Z" fill="#bc6530" stroke="#bc6530"></path><path d="M442 438L440 187L440 240Z" fill="#d0865b" stroke="#d0865b"></path><path d="M191 36L162 66L201 89Z" fill="#e7b89e" stroke="#e7b89e"></path><path d="M201 89L162 66L135 95Z" fill="#e7b89e" stroke="#e7b89e"></path><path d="M135 95L105 81L109 101Z" fill="#bc6530" stroke="#bc6530"></path><path d="M109 101L105 81L90 106Z" fill="#f8ebe4" stroke="#f8ebe4"></path><path d="M104 51L105 81L135 95Z" fill="#e0a787" stroke="#e0a787"></path><path d="M175 640L237 629L221 603Z" fill="#b25519" stroke="#b25519"></path><path d="M221 603L237 629L227 575Z" fill="#eec8b5" stroke="#eec8b5"></path><path d="M417 112L352 92L361 138Z" fill="#c67646" stroke="#c67646"></path><path d="M361 138L352 92L338 130Z" fill="#fcfcfc" stroke="#fcfcfc"></path><path d="M308 111L286 64L237 138Z" fill="#d89671" stroke="#d89671"></path><path d="M320 46L286 64L308 111Z" fill="#eec8b5" stroke="#eec8b5"></path><path d="M440 187L440 162L384 194Z" fill="#e0a787" stroke="#e0a787"></path><path d="M442 438L440 162L440 187Z" fill="#e0a787" stroke="#e0a787"></path><path d="M173 640L188 576L130 598Z" fill="#eec8b5" stroke="#eec8b5"></path><path d="M173 640L175 640L188 576Z" fill="#b25519" stroke="#b25519"></path><path d="M123 642L173 640L130 598Z" fill="#b25519" stroke="#b25519"></path><path d="M442 438L440 151L440 162Z" fill="#eec8b5" stroke="#eec8b5"></path><path d="M440 162L440 151L384 194Z" fill="#e7b89e" stroke="#e7b89e"></path><path d="M340 627L294 538L290 541Z" fill="#eec8b5" stroke="#eec8b5"></path><path d="M175 640L274 640L237 629Z" fill="#c67646" stroke="#c67646"></path><path d="M237 629L274 640L227 575Z" fill="#eec8b5" stroke="#eec8b5"></path><path d="M274 640L298 634L227 575Z" fill="#e7b89e" stroke="#e7b89e"></path><path d="M54 114L0 120L42 149Z" fill="#d89671" stroke="#d89671"></path><path d="M0 99L0 120L54 114Z" fill="#b25519" stroke="#b25519"></path><path d="M280 36L191 36L201 89Z" fill="#fcfcfc" stroke="#fcfcfc"></path><path d="M162 66L104 51L135 95Z" fill="#b25519" stroke="#b25519"></path><path d="M105 81L104 51L54 114Z" fill="#f3d9cc" stroke="#f3d9cc"></path><path d="M173 36L165 38L162 66Z" fill="#b25519" stroke="#b25519"></path><path d="M191 36L173 36L162 66Z" fill="#c67646" stroke="#c67646"></path><path d="M440 151L417 112L361 138Z" fill="#fcfcfc" stroke="#fcfcfc"></path><path d="M320 46L280 36L286 64Z" fill="#d89671" stroke="#d89671"></path><path d="M78 640L94 584L39 640Z" fill="#f8ebe4" stroke="#f8ebe4"></path><path d="M94 584L123 642L130 598Z" fill="#e0a787" stroke="#e0a787"></path><path d="M173 640L123 642L175 640Z" fill="#e7b89e" stroke="#e7b89e"></path><path d="M175 640L123 642L274 640Z" fill="#e0a787" stroke="#e0a787"></path><path d="M123 642L304 640L274 640Z" fill="#c67646" stroke="#c67646"></path><path d="M274 640L304 640L298 634Z" fill="#b25519" stroke="#b25519"></path><path d="M298 634L340 627L290 541Z" fill="#bc6530" stroke="#bc6530"></path><path d="M145 4L104 51L165 38Z" fill="#c67646" stroke="#c67646"></path><path d="M165 38L104 51L162 66Z" fill="#bc6530" stroke="#bc6530"></path><path d="M304 640L340 627L298 634Z" fill="#f3d9cc" stroke="#f3d9cc"></path><path d="M440 151L422 111L417 112Z" fill="#c67646" stroke="#c67646"></path><path d="M376 41L352 58L352 92Z" fill="#e7b89e" stroke="#e7b89e"></path><path d="M431 624L427 572L384 588Z" fill="#d89671" stroke="#d89671"></path><path d="M384 588L427 572L377 504Z" fill="#d89671" stroke="#d89671"></path><path d="M320 46L308 111L352 92Z" fill="#f3d9cc" stroke="#f3d9cc"></path><path d="M286 64L280 36L201 89Z" fill="#c67646" stroke="#c67646"></path><path d="M352 58L320 46L352 92Z" fill="#f3d9cc" stroke="#f3d9cc"></path><path d="M376 41L352 92L417 112Z" fill="#f3d9cc" stroke="#f3d9cc"></path><path d="M304 640L332 640L340 627Z" fill="#d0865b" stroke="#d0865b"></path><path d="M340 627L382 640L384 588Z" fill="#b25519" stroke="#b25519"></path><path d="M123 642L332 640L304 640Z" fill="#f3d9cc" stroke="#f3d9cc"></path><path d="M431 624L440 568L427 572Z" fill="#eec8b5" stroke="#eec8b5"></path><path d="M427 572L440 568L394 494Z" fill="#fcfcfc" stroke="#fcfcfc"></path><path d="M440 484L440 568L442 468Z" fill="#e0a787" stroke="#e0a787"></path><path d="M0 490L0 587L46 508Z" fill="#c67646" stroke="#c67646"></path><path d="M0 94L0 99L54 114Z" fill="#bc6530" stroke="#bc6530"></path><path d="M17 613L94 584L74 563Z" fill="#e7b89e" stroke="#e7b89e"></path><path d="M238 0L276 25L245 0Z" fill="#eec8b5" stroke="#eec8b5"></path><path d="M301 0L276 25L280 36Z" fill="#eec8b5" stroke="#eec8b5"></path><path d="M280 36L276 25L191 36Z" fill="#bc6530" stroke="#bc6530"></path><path d="M191 36L145 4L173 36Z" fill="#f3d9cc" stroke="#f3d9cc"></path><path d="M0 61L0 94L54 114Z" fill="#b25519" stroke="#b25519"></path><path d="M0 587L17 613L74 563Z" fill="#bc6530" stroke="#bc6530"></path><path d="M440 151L440 101L422 111Z" fill="#f8ebe4" stroke="#f8ebe4"></path><path d="M422 111L440 53L417 112Z" fill="#d89671" stroke="#d89671"></path><path d="M442 438L440 101L440 151Z" fill="#bc6530" stroke="#bc6530"></path><path d="M17 613L39 640L94 584Z" fill="#fcfcfc" stroke="#fcfcfc"></path><path d="M78 640L39 640L123 642Z" fill="#e7b89e" stroke="#e7b89e"></path><path d="M332 640L382 640L340 627Z" fill="#d89671" stroke="#d89671"></path><path d="M123 642L382 640L332 640Z" fill="#e7b89e" stroke="#e7b89e"></path><path d="M276 25L233 0L191 36Z" fill="#f3d9cc" stroke="#f3d9cc"></path><path d="M173 36L145 4L165 38Z" fill="#bc6530" stroke="#bc6530"></path><path d="M238 0L233 0L276 25Z" fill="#f3d9cc" stroke="#f3d9cc"></path><path d="M354 0L320 46L352 58Z" fill="#f8ebe4" stroke="#f8ebe4"></path><path d="M301 0L280 36L320 46Z" fill="#e0a787" stroke="#e0a787"></path><path d="M440 53L376 41L417 112Z" fill="#fcfcfc" stroke="#fcfcfc"></path><path d="M301 0L245 0L276 25Z" fill="#f3d9cc" stroke="#f3d9cc"></path><path d="M233 0L145 4L191 36Z" fill="#e0a787" stroke="#e0a787"></path><path d="M22 35L0 61L54 114Z" fill="#e7b89e" stroke="#e7b89e"></path><path d="M39 640L32 640L123 642Z" fill="#fcfcfc" stroke="#fcfcfc"></path><path d="M17 613L32 640L39 640Z" fill="#f8ebe4" stroke="#f8ebe4"></path><path d="M0 640L32 640L17 613Z" fill="#b25519" stroke="#b25519"></path><path d="M0 587L0 620L17 613Z" fill="#c67646" stroke="#c67646"></path><path d="M22 35L54 114L104 51Z" fill="#f8ebe4" stroke="#f8ebe4"></path><path d="M145 4L124 0L104 51Z" fill="#e0a787" stroke="#e0a787"></path><path d="M233 0L124 0L145 4Z" fill="#b25519" stroke="#b25519"></path><path d="M124 0L121 0L104 51Z" fill="#b25519" stroke="#b25519"></path><path d="M354 0L301 0L320 46Z" fill="#c67646" stroke="#c67646"></path><path d="M382 640L431 624L384 588Z" fill="#b25519" stroke="#b25519"></path><path d="M121 0L112 0L104 51Z" fill="#e0a787" stroke="#e0a787"></path><path d="M112 0L22 35L104 51Z" fill="#c67646" stroke="#c67646"></path><path d="M0 620L0 640L17 613Z" fill="#f3d9cc" stroke="#f3d9cc"></path><path d="M32 640L0 640L123 642Z" fill="#e0a787" stroke="#e0a787"></path><path d="M440 640L440 628L431 624Z" fill="#e7b89e" stroke="#e7b89e"></path><path d="M431 624L440 628L440 568Z" fill="#bc6530" stroke="#bc6530"></path><path d="M440 568L440 628L442 468Z" fill="#e7b89e" stroke="#e7b89e"></path><path d="M440 101L440 53L422 111Z" fill="#b25519" stroke="#b25519"></path><path d="M376 41L354 0L352 58Z" fill="#f3d9cc" stroke="#f3d9cc"></path><path d="M442 438L440 53L440 101Z" fill="#bc6530" stroke="#bc6530"></path><path d="M415 25L354 0L376 41Z" fill="#d0865b" stroke="#d0865b"></path><path d="M123 642L440 640L382 640Z" fill="#e7b89e" stroke="#e7b89e"></path><path d="M382 640L440 640L431 624Z" fill="#e0a787" stroke="#e0a787"></path><path d="M440 628L440 640L442 468Z" fill="#c67646" stroke="#c67646"></path><path d="M440 53L415 25L376 41Z" fill="#d89671" stroke="#d89671"></path><path d="M112 0L23 0L22 35Z" fill="#f3d9cc" stroke="#f3d9cc"></path><path d="M22 35L0 0L0 61Z" fill="#bc6530" stroke="#bc6530"></path><path d="M23 0L0 0L22 35Z" fill="#c67646" stroke="#c67646"></path><path d="M440 0L433 0L415 25Z" fill="#eec8b5" stroke="#eec8b5"></path><path d="M415 25L433 0L354 0Z" fill="#fcfcfc" stroke="#fcfcfc"></path><path d="M442 438L440 0L440 53Z" fill="#d89671" stroke="#d89671"></path><path d="M440 53L440 0L415 25Z" fill="#f3d9cc" stroke="#f3d9cc"></path></g></svg>