<svg id="visual" viewBox="0 0 960 540" width="960" height="540" xmlns="http://www.w3.org/2000/svg" xmlns:xlink="http://www.w3.org/1999/xlink" version="1.1"><path d="M0 125L80 125L80 77L160 77L160 93L240 93L240 66L320 66L320 136L400 136L400 82L480 82L480 66L560 66L560 82L640 82L640 120L720 120L720 82L800 82L800 87L880 87L880 87L960 87L960 120L960 0L960 0L880 0L880 0L800 0L800 0L720 0L720 0L640 0L640 0L560 0L560 0L480 0L480 0L400 0L400 0L320 0L320 0L240 0L240 0L160 0L160 0L80 0L80 0L0 0Z" fill="#fa7268"></path><path d="M0 309L80 309L80 282L160 282L160 336L240 336L240 249L320 249L320 320L400 320L400 201L480 201L480 271L560 271L560 201L640 201L640 255L720 255L720 271L800 271L800 195L880 195L880 195L960 195L960 341L960 118L960 85L880 85L880 85L800 85L800 80L720 80L720 118L640 118L640 80L560 80L560 64L480 64L480 80L400 80L400 134L320 134L320 64L240 64L240 91L160 91L160 75L80 75L80 123L0 123Z" fill="#e45765"></path><path d="M0 438L80 438L80 395L160 395L160 422L240 422L240 368L320 368L320 406L400 406L400 330L480 330L480 325L560 325L560 303L640 303L640 347L720 347L720 363L800 363L800 239L880 239L880 298L960 298L960 438L960 339L960 193L880 193L880 193L800 193L800 269L720 269L720 253L640 253L640 199L560 199L560 269L480 269L480 199L400 199L400 318L320 318L320 247L240 247L240 334L160 334L160 280L80 280L80 307L0 307Z" fill="#cb3d62"></path><path d="M0 541L80 541L80 541L160 541L160 541L240 541L240 541L320 541L320 541L400 541L400 541L480 541L480 541L560 541L560 541L640 541L640 541L720 541L720 541L800 541L800 541L880 541L880 541L960 541L960 541L960 436L960 296L880 296L880 237L800 237L800 361L720 361L720 345L640 345L640 301L560 301L560 323L480 323L480 328L400 328L400 404L320 404L320 366L240 366L240 420L160 420L160 393L80 393L80 436L0 436Z" fill="#b0235f"></path></svg>